<svg xmlns="http://www.w3.org/2000/svg" viewBox="0 0 39 41" width="39" height="41">
	<style>
		tspan { white-space:pre }
		.shp0 { fill: #ffffff } 
	</style>
	<g id="0.8.0 - Home">
		<g id="Main Ruling">
			<g id="thumbs 2">
				<path id="Rectangle 9 copy" class="shp0" d="M9.43 18.44C13.67 12.2 15.17 10.42 14.92 6.8C14.67 3.19 15.39 2.2 17.09 2.02C18.8 1.84 22.01 2.77 22.57 8.69C22.82 11.25 20.99 16.29 20.99 16.29C20.99 16.29 32.64 16.3 33.77 16.3C35.58 16.3 37 17.07 37 19.54C37 21.86 34.44 22.55 34.44 22.55C34.44 22.55 36.08 23.19 36.08 25.14C36.08 27.11 34.38 28 33.26 28C33.95 28.34 34.93 29.01 34.71 30.7C34.5 32.38 33.3 32.99 32.11 33.36C32.88 33.83 33.44 35.14 33.01 36.15C32.44 37.51 30.92 39 27.52 39C23.4 39 12.08 39 11.62 39C10.42 39 9.53 38.45 9.34 37.77C9.34 36.38 9.34 19.2 9.34 19.2C9.34 19.2 9.34 18.6 9.43 18.44ZM2 17.25L8.22 17.25L8.22 39L2 39L2 17.25ZM1 17.25L7.22 17.25L7.22 39L1 39L1 17.25Z" />
			</g>
		</g>
	</g>
</svg>